<svg xmlns="http://www.w3.org/2000/svg" xmlns:xlink="http://www.w3.org/1999/xlink" width="170" height="85" viewBox="0 0 170 85">
    <defs>
        <path id="epvk4tfkha" d="M0 0.041L168.731 0.041 168.731 81.175 0 81.175z"/>
    </defs>
    <g fill="none" fill-rule="evenodd">
        <g>
            <g>
                <g>
                    <g transform="translate(-52) translate(52) translate(.425)">
                        <mask id="bk13t97ovb" fill="#fff">
                            <use xlink:href="#epvk4tfkha"/>
                        </mask>
                        <path fill="#920024" d="M.134.041C.14 1.614.14 2.903.138 3.221.13 4.541.16 5.951.226 6.974.32 8.496.1 9.886.204 11.18c.105 1.294-.038 1.63.07 2.834.033.354-.227 1.246-.184 1.641.163 1.48.016 1.695-.003 3.171-.007.593-.033 1.87-.002 2.392.031.523-.139 1.007-.067 1.558.07.552.374 1.323.285 1.947C.05 26.48.07 27.465.077 29.23c.003.515.016 1.355-.001 2.002-.018.648.277 1.493.144 2.281-.039.229.115.942.139 1.226.025.284-.246.397-.288.833-.04.435-.071 1.015-.001 1.585.069.57-.128 1.623 0 1.975.127.353-.001 1.067-.001 1.318.001 1.603.115 3.625.083 4.664-.053 1.742.46 2.197.52 3.698.027.712.272 1.047.325 1.608.015.163.165.76.205.863.04.102.268.383.308.561.288 1.274.55 1.558 1.372 3.338 1.364 1.76 2.213 2.86 3.083 3.574.945.773 1.519 1.245 1.825 1.457.372.256.452.192.659.338.207.146.198.135.321.222.123.088.83.508.985.618.155.11.377.158.498.238.12.081.545.224.777.359.233.135.842.257 1.186.429 1.373.685 2.006.991 3.539 1.35.17.04.425.2.606.256.182.055.685.147.794.188.659.247 1.953.453 2.511.561.56.107.85.097 1.304.188 1.257.25 2.394.534 3.662.765.645.118 1.385.267 2.067.343 1.489.165 2.955.59 4.455.798.475.066.76.04 1.336.124.576.084 1.147.041 1.911.17.765.13 2.049.334 2.911.466.352.054.885.094 1.16.138.274.045.163.086.4.123.236.037.334-.012.67.041.337.053.765.036 1.245.101.48.065 1.538.135 1.998.199.46.064.423.13.83.19.405.061.683.02 1.2.096.518.078 1.108.25 1.77.338 1.147.15 2.56.28 3.75.472 1.192.192 2.306.357 3.497.569.524.093.963.115 1.552.223.588.108 1.328.356 1.99.458.164.025.293-.004.552.047.259.052.895.25 1.192.293.296.043.32.006.631.052.312.045.798.182 1.16.242.363.06.768.053 1.128.12.02.003-.014.026.007.03 4.25.785 7.987 2.35 12.098 3.66.194.062.1.095.19.12.67.181 1.973.95 2.368 1.185.395.235.382.163.475.225.719.471 1.098.505 1.858 1.026.109.075 1.406.652 2.705 1.562 1.3.91 2.114 2.039 2.712 2.039.598 0 1.687-1.239 2.744-2.065 1.056-.826 2.41-1.53 3.309-2.141.587-.4 1.1-.511 1.648-.932.049-.038-.133.084.032-.03.167-.115 1.094-.45 1.418-.629.325-.18 1.14-.629 1.519-.75.378-.122.722-.388 1.05-.431.327-.043.323-.23.635-.261.312-.032.814-.456 1.14-.5.02-.002-.013-.022.008-.03.34-.116 1.022-.214 1.297-.253.275-.04.01-.072.237-.097.228-.025.813-.301 1.015-.376.203-.074.101.05.276.005.795-.209 1.685-.524 2.52-.645.238-.035.537-.023.753-.08.217-.058-.148-.034.194-.11.343-.076 1.565-.266 1.906-.324 0 0-.046-.003.235-.088.282-.086.802-.32 1.217-.376.415-.057 1.002-.058 1.44-.157.437-.1 1.044-.271 1.44-.33.823-.122 1.587-.154 2.327-.341.17-.043.048-.042.12-.092.072-.05.109.06.206.026 1.028-.367 2.177-.415 3.258-.573.02-.003-.015-.023.006-.03.552-.179 1.215-.197 1.778-.284.564-.087 1.31-.292 1.787-.355.477-.064.673-.033 1.062-.083.39-.05.769-.163 1.126-.208.358-.046.612-.02.951-.081 1.339-.24 2.501-.33 3.875-.472.3-.032.575 0 .95-.047s1.094-.226 1.477-.295c.384-.068.58-.04.93-.128.35-.088.852-.013 1.217-.114.926-.258 1.856-.308 2.802-.555.194-.052.35.103.638.041.287-.061.591-.118.967-.174.375-.056.863-.077 1.233-.148.929-.178 1.64-.22 2.546-.306.907-.087 1.87-.298 2.769-.333.415-.017 1.196-.313 1.585-.342.39-.029.49-.075.877-.11.39-.033.495.007 1.036-.127.541-.135 1.333-.123 2.022-.33.69-.207 1.258.007 1.924-.234.665-.242 1.147-.338 1.91-.514.354-.081.869-.11 1.393-.26.245-.07.493-.138.726-.234.343-.14.658-.228.897-.33.27-.115.602-.216.92-.31.317-.092.619-.258.827-.339.451-.174.527-.168 1.067-.398.304-.13.642-.444 1.034-.627.386-.18.775-.363 1.163-.613.26-.168.517-.387.773-.579.456-.342 1.005-.578 1.433-.972.49-.453.602-.522 1.03-.998.15-.168.441-.473.645-.778.203-.304.556-.735.685-.899.243-.308.362-.515.62-.824.2-.24.38-.575.369-.759.186-.407.306-.629.444-.925.172-.367.274-.677.369-.997.094-.32.18-.652.323-1.064.096-.281.37-.6.485-.98.132-.43.654-1.788.713-2.482.134-1.559.338-2.284.621-3.912.07-.407.106-1.91.11-2.254.011-1.103-.195-2.096 0-3.199.194-1.103.097-2.565.029-3.477-.069-.913 0-1.373.006-2.086.006-.714-.087-1.373-.035-2.114.051-.742-.231-2.044-.126-2.826.105-.782.214-1.006.126-1.653-.09-.647.208-1.435.132-2.03-.163-1.274-.132-3.227-.264-4.753-.096-1.124.237-1.212.132-2.007-.209-1.57.169-1.355 0-2.893-.036-.32-.074-1.866 0-2.253.181-.958.029-1.248 0-2.253-.006-.205-.044-1.624 0-1.891.27-1.644.279-4.047.109-5.6-.1-.91-.043-1.972-.12-2.448-.016-.09.016-.603.05-1.308H.134z" mask="url(#bk13t97ovb)"/>
                    </g>
                    <path fill="#FEFEFE" d="M151.298 37.825c2.345 0 4.252 1.905 4.252 4.247 0 2.343-1.907 4.253-4.252 4.253-2.342 0-4.248-1.91-4.248-4.253 0-2.342 1.906-4.247 4.248-4.247zm0 7.742c1.934 0 3.5-1.56 3.5-3.495 0-1.927-1.566-3.493-3.5-3.493-1.928 0-3.493 1.566-3.493 3.493 0 1.934 1.565 3.495 3.493 3.495zm-1.676-5.928h1.87c1.166 0 1.715.526 1.715 1.462 0 .844-.503 1.253-1.167 1.337l1.269 2.053h-.935l-1.212-1.988h-.653v1.988h-.887v-4.852zm.887 2.114h.653c.549 0 1.154-.035 1.154-.687s-.605-.687-1.154-.675h-.653v1.362zM52.689 34.4c-.033.275.356.133.426.312-.136.163-.324.287-.485.43-4.534.252-8.785-.089-13.28.627.594 2.768 1.538 5.164 3.596 6.43.062.088.062.155 0 .244 1.087.259 2.27 1.468 3.774 1.625 1.376.138 2.759-.042 3.9-.5.15-.012.18.095.305.12 1.826-.64 3.115-2.044 4.747-3.24-.302-1.393-.998-2.912-.79-4.552.01-.088.017-.517.184-.372-.308-1.026.474-1.947.48-3.058.363-.447.49-1.128.674-1.748 1.342-2.322 2.809-4.565 5.848-4.867.3-.028.55.07.787.063.78-.024 1.508-.246 2.441 0 .598.157 1.383.356 1.827.566.24.104.496.402.79.555.609.316 1.074.517 1.462.996-.144-2.73.151-5.767-.545-8.297-.472-.256-.871.111-1.346.125-.26-.267-.737-.429-.605-.935 1.374-.334 3.08-.785 4.449-1 .661-.099 1.234-.166 1.643.253.094 1.327.215 2.996.426 4.367-.218.143-.279.204-.61.128.255 3.625-.168 7.537-.121 11.48.005.77.155 1.55.184 2.303.024.694-.07 1.37-.062 2.059.014 1.836.037 3.493-.06 5.432.256.316.383.755.79.87.365.1.81-.184 1.213-.065.49.145.505.541.919.94-.39.553-1.245.302-1.892.37-1.11.116-2.503.421-3.587.625-.196-.025-.216-.237-.432-.25-.018-.756-.28-1.913-.178-2.932.02-.205.06-.384 0-.746-1.04 1.347-2.055 3.083-4.265 3.303-.168.017-.31-.068-.49-.06-.796.015-1.653.317-2.438.246-1.293-.107-2.405-.73-3.59-1.182-.661-.692-1.266-1.444-1.95-2.119-.08-.335-.208-.618-.417-.813-1.196.882-2.224 1.923-3.483 2.744-1.696.462-3.237 1.873-4.992 1.873-2.102-.005-4.806.037-6.882-1.311-.301-.191-.606-.51-.972-.75-.334-.213-.761-.446-.975-.687-.157-.16-.216-.416-.365-.561-.226-.214-.36-.413-.61-.749-.687-.925-1.474-2.055-1.704-3.307-.077-.412.062-.824-.243-1.188.08-1.373-.25-2.4.117-3.55.023-2.574.724-4.438 2.198-5.677.034-.134.15-.178.12-.376.468-.147.637-.592.915-.935.189-.1.165-.127.422-.059 1.562-1.143 2.612-1.33 4.693-1.686 1.766.19 3.425.484 4.934.94 2.237 1.653 3.35 4.134 3.105 7.547m12.24-7.547c.311-.033.63.269.91.054-.234-.047-.767-.303-.91-.054m-22.533.433c.162.016.203-.09.185-.252-.165.003-.294.14-.185.252m6.579 2.805c-.443-1.066-1.252-1.761-2.194-2.307-1.099-.328-2.46-.799-3.533-.25-.255.132-.633.302-.852.437-.779.48-1.21 1.29-1.645 1.997-.671 1.094-1.273 2.614-1.4 4.115 3.215-.12 6.472-.46 9.68-.501.6-1.073.071-2.4-.056-3.491m13.393-1.996c-.213.13-.439.211-.609.312-1.935 1.218-2.606 3.342-2.918 6.049-.42 3.66.965 7.156 3.043 8.798 1.467.545 2.794.754 4.02.249.89-.368 1.143-.835 1.766-1.497.7-.737.865-1.11 1.404-1.997.499-.815.97-1.245.973-2.493.004-2.403-.08-5.503-1.217-7.3-.53-.827-1.3-1.416-1.894-1.997-1.513-.525-3.313-.881-4.568-.124m7.128 1.5c0-.358-.308-.392-.422-.626-.178.307.23.494.422.626m-19 4.053c.246 0 .297-.478.124-.562-.06.17-.129.325-.124.562m1.4.808c.012-.22-.086-.322-.308-.306-.029.24.14.27.309.306m-9.933 9.545c-.522-.266-.807-.787-1.338-1.056.312.451.861.992 1.338 1.056m1.219-.125c-.237-.173-.475-.338-.787-.436.136.234.64.627.787.436m17.484 1.06c.074-.128.365-.041.428-.186-.197-.09-.659-.083-.428.186M145.207 44.352c.07.011.035.064 0 .064.16.424.242 1.124-.061 1.54-.54.016-.656-.342-.982.121-.223-.102-.466-.184-.612-.37-1.118-.21-2.518.191-3.683.31-.22.026-.477-.08-.677-.06-.408.038-.867.364-1.23.06.57-1.306 2.365-2.058 1.721-4.009-.82.572-1.447 1.34-2.092 2.098-.47.054-.718.58-1.103.802-.115.07-.398.076-.493.123-.888.474-1.643 1.333-2.888.742-.259.009-.451.076-.671.12-1.106-.415-1.94-1.345-1.968-2.653-.949.866-2.197 1.5-3.38 2.038-.911.413-1.93 1.086-3.25 1.045-.39-.011-1.03-.198-1.418-.307-1.915-.526-3.125-1.77-3.625-3.701-.418.897-1.287 1.337-1.964 1.979-1.538.5-3.203 1.64-5.157 1.91-2.228.308-4.893-.466-6.7-1.055-1.408-.836-2.752-1.75-3.747-3.012-.298-.854-.875-1.597-1.163-2.533-.4-1.308-.381-2.784-.614-4.323.259-4.46 2.565-7.34 5.835-8.698 1.722-.187 2.628-.505 4.36-.187.684.13 1.839.344 2.276.62 1.76 1.133 2.784 2.933 3.445 5.184.275.964.407 1.68.418 2.586-.052.297.348.06.187.253-.09.607-.859.344-1.286.433-.181.032-.333.174-.493.181-.387.029-.783-.142-1.229-.118-.817.035-2.092.443-2.89 0-2.072.317-4.687.53-7.185.49-.17 1.453.588 3.119.678 4.5.374.512.704 1.059 1.23 1.422-.134.225.496.368.179.55.045.158.183-.194.31 0 1.144.907 3.036 1.682 5.158 1.425.196-.023.375-.156.556-.19.774-.139 1.54-.075 2.27-.246.623-.142 1.318-.419 1.843-.673 1.139-.558 2.157-1.355 3.068-2.103.19-.046.149-.17.374-.06.085-2.586 1.498-4.507 3.438-5.674 2.34-1.01 5.702-2.23 8.294-.746.012-2.42-.114-4.994-1.597-6.537-2.274-.789-5.384-.668-6.572 1.113.371.38.416.395.796.68.104.92.525 1.768 0 2.652-.703.441-1.506.792-2.7.74-1.024-.605-1.476-1.924-1.046-3.149.653-1.837 2.543-3.19 4.3-3.824.237-.009.023.05.063.181 1.662-.677 3.45-.123 4.847.063.377.052.766-.035 1.107.067 1.74.5 3.198 2.349 3.501 4.253.122.745.303 1.757.37 2.714.116 1.574-.115 3.562-.065 5.246.041 1-.395 2.041-.119 3.21.16.676 1.143 1.542 2.024 1.6 1.123.082 2.19-1.312 2.893-2.096.617-.692.798-1.125 1.281-2.036.173-.313.442-.548.5-.741.072-.258-.014-.56 0-.864.207-4.994-.085-11.62 0-16.78-.884.07-2.095.215-2.763-.308.175-.274 0-.617.181-.802 2.024-.03 3.872-.676 5.71-.432.677 3.855.142 8.458.062 12.836-.013 1.016.108 2.214-.243 3.023.218 3.338-.5 5.688-.184 8.447.336.913 1.852.59 2.575.866m-37.96-16.963c.177.046.384.066.56.12.066-.33-.483-.294-.56-.12m4.427 1.417c.044-.52-.566-.706-.862-.68.303.212.536.489.862.68m-.554.614c-.62-1.063-2-.998-3.072-1.172-.938-.146-2.787.328-3.439.988-.952.955-1.7 2.372-1.908 3.826.187.367.017.805 0 1.168 3.367-.335 7.079-.171 10.442-.183.05-.044-.215-.308-.305-.43-.212-1.344-.82-2.293-1.533-3.148-.282-.16-.635-.246-.611-.555-.31.091-.66-.162-.803-.428-.422-.154-.926-.227-.981-.744.745-.582 1.53.436 2.21.678m14.009 6.356c-.295.308-.692.5-1.11.681-1.216 1.016-2.66 2.834-2.516 4.932.093 1.389 1.01 2.327 2.516 2.468 1.14.108 2.056-.09 2.763-.555 1.39-.915 2.45-2.206 3.441-3.212.112-1.822.061-3.432.121-4.618-1.628-.721-3.575-.164-5.215.304m-21.87 7.037c-.1-.163-.444-.676-.558-.438.284.012.284.625.557.438m19.839 2.336c.313.1.852.082 1.049-.05-.322.045-1.788-.173-1.05.05M97.113 30.28c-.336-.012-.758-.105-.614-.424-.144-.036-.44.082-.488-.062-.43-.17-.47-.665-.67-.98-.213-.344-.643-.5-.729-.863-.462-.237-.791-.398-1.405-.49-1.206-.19-2.206-.588-3.602-.308-.797.163-1.88 1.008-2.259 1.535-.191.267-.454 1.34-.49 1.783-.128 1.56.58 2.447 1.766 3.074.831.44 1.83.458 2.877.61.608.09 1.523.373 2.255.62.748.254 1.558.547 1.895.798.335.258.341.721.85.8.55.885.933 2.142.8 3.438-.065.575-.168 1.743-.366 2.398-.394 1.247-1.566 1.979-2.083 2.888-.801.358-1.691 1.188-2.501.985-.468.436-1.257.16-1.955.12-.438-.018-.753.133-1.095.064-.3-.054-.491-.208-.974-.31-1.235-.242-2.065-1.123-2.935-1.654-.106.204.051.454-.12.68-.213.019-.341-.035-.485-.068-.156.262-.012.507-.25.74-.34-.043-.51-.268-.796-.374.279-2.33-.089-3.909 0-6.143.43-.038.297-.647.555-.862.388-.055.468-.004.67.062.58 3.108 1.354 5.74 5.007 6.028.843-.127 2.019-.224 2.812-.556.751-.769 1.378-1.45 1.398-2.704.05-2.598-2.758-3.275-4.704-4.056-.986.105-1.815-.617-2.683-1.17-.34-.214-.78-.302-1.034-.487-.774-.564-1.171-1.487-1.651-2.28-.194-1.614-.435-2.863.243-4.242.044-.076.195-.076.183-.056.144-.221.136-.521.308-.74.092-.119.385-.26.428-.307.443-.449.713-.845 1.16-1.163.65-.475 1.388-.637 2.26-.988 1.974-.796 4.934-.796 6.65.556.25.19.61.52.856.796.46.523.632 1.46.853 2.154.1.3.357.683.063 1.158M32.814 26.956c-1.043-.083-1.846.894-2.57 1.246-.402.622-1.052 1.505-1.719 2.057.03.055.058.11.123.126-.627.97-1.355 2.144-1.226 3.674.1.222-.207.032-.18.185-.308 3.28-.218 6.089-.063 8.904.916.552 2.425 1.063 3.552.997.148.26-.022.796.371.934-.281.418-.044.879-.37 1.186-.225-.185-.422.063-.676.06-.385-.009-.72-.269-1.04-.312-.064-.008-.255.128-.305.128-.37.012-.756-.123-1.164-.128-2.192-.005-4.447.415-6.612.067.04-.355-.213-.738-.061-1.06.488-.293 1.19-.516 1.834-.623.18-.035.327.061.495 0 .4-.167 1.246-1.397.973-2.052-.061-.233.235-.102.189-.31.046-.274-.128.044-.128-.129.155-1.77-.093-3.784-.06-5.853.03-1.624.107-3.192.246-4.67.103-1.07.264-2.714-.058-3.305-.54-.966-2.282-.65-3.31-.997-.035-.201.04-.29.063-.428 1.463-.14 3.142-.466 4.657-.688.226-.024.176-.323.423-.311-.093.26.342-.014.244.248.225-.213.345-.492.737-.374.016 1.229.016 2.81 0 4.292.36-.165.487-.586.674-.93.83-.606 1.34-1.542 2.203-2.112.358 0 .66-.39.857-.505.156-.086.198.15.122-.122 1.033-.45 2.315-.626 3.494-.186.347.435.667.896 1.224 1.116 1.086 1.817-.37 3.676-2.264 3.552-.789-.048-1.698-.596-1.841-1.494-.172-1.065.584-1.715 1.166-2.183m.614 1.622c.207.099.282-.417.061-.376 0 .153-.11.184-.06.376m-6.801 15.194c-.024-.203-.047-.403-.241-.438 0 .235.096.366.24.438m-1.958 1.122c.222-.012.234-.087.428 0-.032-.201-.133-.317-.306-.376-.035.133-.149.183-.122.376M84.41 73.95c-.782 0-1.591-.196-2.276-.554-.567-.295-1.075-.594-1.573-.886-.515-.3-1.02-.596-1.562-.874-1.814-.96-3.814-1.844-6.48-2.864l-.332-.125c-2.08-.769-4.23-1.566-6.424-2.05-4.745-1.085-9.54-1.74-14.045-2.32-1.863-.233-3.729-.522-5.596-.81-1.055-.163-2.123-.328-3.197-.483 2.89.124 5.869.26 8.795.543 4.522.451 9.34.972 14.137 1.926 2.265.433 4.476 1.193 6.613 1.926l.254.087c2.718.964 4.763 1.809 6.63 2.74.586.283 1.181.612 1.758.93.474.263.936.517 1.371.735.633.303 1.252.455 1.846.455.44 0 .872-.084 1.283-.25.51-.186.992-.48 1.481-.788.52-.33 1.047-.618 1.577-.904 1.054-.56 2.144-1.088 3.239-1.57 2.179-.944 4.437-1.793 6.71-2.522 2.688-.864 4.897-1.42 6.954-1.748 4.358-.692 8.8-1.077 13.094-1.448l1.097-.095c3.442-.29 6.887-.517 10.328-.746 2.926-.194 5.899-.393 8.883-.63-6.062.83-12.586 1.664-19.187 2.369l-1.052.114c-4.305.472-8.755.96-13.06 1.743-2.007.366-4.176.964-6.823 1.887-2.24.777-4.453 1.669-6.576 2.652-1.073.492-2.14.997-3.175 1.553-.518.28-1.034.565-1.52.874-.511.319-1.068.643-1.666.854-.46.186-.964.279-1.505.279" transform="translate(-52) translate(52) translate(.425)"/>
                    <path fill="#FEFEFE" d="M132.627 62.106c-4.14.53-8.426 1.045-12.755 1.506l-1.083.118c-4.31.471-8.766.958-13.08 1.74-2.041.37-4.16.953-6.87 1.892-2.252.78-4.477 1.673-6.612 2.657-.967.442-2.103.973-3.196 1.558-.522.282-1.044.568-1.532.877-.473.294-1.028.625-1.652.842-.43.175-.91.263-1.427.263-.755 0-1.534-.19-2.195-.534-.567-.293-1.076-.591-1.574-.881-.518-.303-1.025-.598-1.565-.873-1.817-.958-3.888-1.87-6.526-2.875l-.305-.113c-2.1-.775-4.27-1.577-6.49-2.066-4.76-1.085-9.578-1.741-14.105-2.32-1.68-.21-3.393-.47-5.06-.726 1.673.09 3.355.203 5.018.364 4.542.453 9.375.973 14.162 1.923 2.262.43 4.477 1.189 6.62 1.923l.235.08c2.707.955 4.75 1.796 6.632 2.73.583.28 1.177.607 1.752.923.477.263.943.519 1.387.742.66.312 1.31.47 1.933.47.466 0 .922-.088 1.344-.257.537-.194 1.03-.495 1.53-.81.518-.326 1.043-.612 1.568-.895 1.047-.554 2.136-1.08 3.232-1.56 2.172-.939 4.43-1.785 6.714-2.515 2.695-.863 4.901-1.416 6.943-1.74 4.341-.686 8.77-1.069 13.051-1.439l1.165-.1c3.451-.29 6.963-.521 10.358-.746l2.383-.158m15.698-1.756c-9.465 1.14-18.972 1.474-28.472 2.27-4.75.413-9.5.794-14.244 1.544-2.386.378-4.718 1.021-7 1.752-2.288.732-4.54 1.574-6.75 2.53-1.102.482-2.188 1.006-3.26 1.573-.536.287-1.067.579-1.593.91-.499.315-.96.593-1.455.772-.399.16-.804.235-1.212.235-.586 0-1.178-.155-1.765-.434-.968-.484-2.07-1.15-3.139-1.664-2.168-1.076-4.413-1.95-6.671-2.745-2.255-.772-4.539-1.568-6.912-2.02-4.707-.934-9.45-1.454-14.195-1.926-4.747-.46-9.5-.524-14.257-.806 4.747.416 9.487 1.351 14.212 1.943 4.72.604 9.45 1.262 14.066 2.313 2.302.508 4.515 1.342 6.747 2.166 2.217.843 4.401 1.757 6.48 2.853 1.068.545 1.986 1.158 3.141 1.756.688.36 1.532.578 2.374.578.54 0 1.077-.09 1.572-.29.631-.22 1.203-.557 1.712-.874.483-.305.997-.587 1.512-.865 1.032-.553 2.1-1.056 3.172-1.546 2.145-.988 4.343-1.87 6.577-2.644 2.238-.775 4.5-1.458 6.813-1.875 4.655-.846 9.405-1.337 14.136-1.856 9.473-1.01 18.975-2.297 28.411-3.65" transform="translate(-52) translate(52) translate(.425)"/>
                </g>
            </g>
        </g>
    </g>
</svg>
